<?xml version="1.0" encoding="UTF-8" standalone="no"?>
<!-- Generator: Adobe Illustrator 19.1.0, SVG Export Plug-In . SVG Version: 6.00 Build 0)  -->
<svg xmlns:dc="http://purl.org/dc/elements/1.1/" xmlns:cc="http://creativecommons.org/ns#" xmlns:rdf="http://www.w3.org/1999/02/22-rdf-syntax-ns#" xmlns:svg="http://www.w3.org/2000/svg" xmlns="http://www.w3.org/2000/svg" xmlns:sodipodi="http://sodipodi.sourceforge.net/DTD/sodipodi-0.dtd" xmlns:inkscape="http://www.inkscape.org/namespaces/inkscape" version="1.1" id="Ebene_1" x="0px" y="0px" viewBox="0 0 319 100.41062" xml:space="preserve" sodipodi:docname="Wortbildmarke.svg" width="319" height="100.41062" inkscape:version="0.92.4 5da689c313, 2019-01-14" inkscape:export-filename="/home/andreeja/worktree/hulks.github.io/_files/Wortbildmarke.svg.png" inkscape:export-xdpi="492.30768" inkscape:export-ydpi="492.30768"><metadata id="metadata107"><rdf:RDF><cc:Work rdf:about=""><dc:format>image/svg+xml</dc:format><dc:type rdf:resource="http://purl.org/dc/dcmitype/StillImage"/><dc:title/></cc:Work></rdf:RDF></metadata><defs id="defs105">
	
	
	
</defs><sodipodi:namedview pagecolor="#ffffff" bordercolor="#666666" borderopacity="1" objecttolerance="10" gridtolerance="10" guidetolerance="10" inkscape:pageopacity="0" inkscape:pageshadow="2" inkscape:window-width="1920" inkscape:window-height="1051" id="namedview103" showgrid="false" inkscape:zoom="2.8717949" inkscape:cx="135.08316" inkscape:cy="49.962982" inkscape:window-x="1920" inkscape:window-y="0" inkscape:window-maximized="1" inkscape:current-layer="Ebene_1"/>
<style type="text/css" id="style2">
	.st0{fill:#ffffff;}
	.st1{fill:#ffffff;}
</style>
<g transform="translate(-36, -11)">
<g id="g196" transform="matrix(1.2881656,0,0,1.2881656,-130.32622,-30.367997)"><g id="g68">
		<path class="st0" d="m 131,103.1 v 3.2 h -1.7 V 98 h 2.4 c 1.1,0 1.9,0.2 2.5,0.6 0.5,0.4 0.8,1 0.8,1.9 0,0.5 -0.1,0.9 -0.4,1.3 -0.3,0.4 -0.6,0.7 -1.1,0.9 1.2,1.9 2,3.1 2.4,3.6 H 134 l -2,-3.2 z m 0,-1.4 h 0.6 c 0.6,0 1,-0.1 1.2,-0.3 0.2,-0.2 0.4,-0.5 0.4,-0.9 0,-0.4 -0.1,-0.7 -0.4,-0.8 -0.3,-0.2 -0.7,-0.2 -1.2,-0.2 H 131 Z" id="path4" inkscape:connector-curvature="0" style="fill:#ffffff"/>
		<path class="st0" d="m 142.4,103.1 c 0,1 -0.3,1.8 -0.8,2.4 -0.5,0.6 -1.3,0.9 -2.3,0.9 -0.6,0 -1.1,-0.1 -1.6,-0.4 -0.5,-0.3 -0.8,-0.6 -1.1,-1.1 -0.2,-0.5 -0.4,-1.1 -0.4,-1.7 0,-1 0.3,-1.8 0.8,-2.4 0.5,-0.6 1.3,-0.9 2.3,-0.9 0.6,0 1.1,0.1 1.6,0.4 0.5,0.3 0.8,0.6 1.1,1.1 0.3,0.4 0.4,1 0.4,1.7 z m -4.3,0 c 0,0.6 0.1,1.1 0.3,1.4 0.2,0.3 0.5,0.5 1,0.5 0.5,0 0.8,-0.2 1,-0.5 0.2,-0.3 0.3,-0.8 0.3,-1.4 0,-0.6 -0.1,-1.1 -0.3,-1.4 -0.2,-0.3 -0.5,-0.5 -1,-0.5 -0.5,0 -0.8,0.2 -1,0.5 -0.2,0.3 -0.3,0.8 -0.3,1.4 z" id="path6" inkscape:connector-curvature="0" style="fill:#ffffff"/>
		<path class="st0" d="m 147.4,99.8 c 0.7,0 1.3,0.3 1.7,0.9 0.4,0.6 0.6,1.4 0.6,2.4 0,1 -0.2,1.8 -0.7,2.4 -0.4,0.6 -1,0.9 -1.8,0.9 -0.7,0 -1.3,-0.3 -1.7,-0.8 h -0.1 l -0.3,0.7 h -1.3 v -8.8 h 1.7 v 2 c 0,0.3 0,0.7 -0.1,1.2 h 0.1 c 0.5,-0.6 1.1,-0.9 1.9,-0.9 z m -0.6,1.4 c -0.4,0 -0.7,0.1 -0.9,0.4 -0.2,0.3 -0.3,0.7 -0.3,1.3 v 0.2 c 0,0.7 0.1,1.2 0.3,1.5 0.2,0.3 0.5,0.4 1,0.4 0.4,0 0.6,-0.2 0.8,-0.5 0.2,-0.3 0.3,-0.8 0.3,-1.4 0,-0.6 -0.1,-1.1 -0.3,-1.4 -0.2,-0.3 -0.5,-0.5 -0.9,-0.5 z" id="path8" inkscape:connector-curvature="0" style="fill:#ffffff"/>
		<path class="st0" d="m 156.9,103.1 c 0,1 -0.3,1.8 -0.8,2.4 -0.5,0.6 -1.3,0.9 -2.3,0.9 -0.6,0 -1.1,-0.1 -1.6,-0.4 -0.5,-0.3 -0.8,-0.6 -1.1,-1.1 -0.2,-0.5 -0.4,-1.1 -0.4,-1.7 0,-1 0.3,-1.8 0.8,-2.4 0.5,-0.6 1.3,-0.9 2.3,-0.9 0.6,0 1.1,0.1 1.6,0.4 0.5,0.3 0.8,0.6 1.1,1.1 0.3,0.4 0.4,1 0.4,1.7 z m -4.4,0 c 0,0.6 0.1,1.1 0.3,1.4 0.2,0.3 0.5,0.5 1,0.5 0.5,0 0.8,-0.2 1,-0.5 0.2,-0.3 0.3,-0.8 0.3,-1.4 0,-0.6 -0.1,-1.1 -0.3,-1.4 -0.2,-0.3 -0.5,-0.5 -1,-0.5 -0.5,0 -0.8,0.2 -1,0.5 -0.2,0.3 -0.3,0.8 -0.3,1.4 z" id="path10" inkscape:connector-curvature="0" style="fill:#ffffff"/>
		<path class="st0" d="m 162,99.3 c -0.7,0 -1.2,0.2 -1.5,0.7 -0.3,0.5 -0.5,1.2 -0.5,2.1 0,1.8 0.7,2.8 2.1,2.8 0.6,0 1.3,-0.1 2.1,-0.4 v 1.5 c -0.7,0.3 -1.4,0.4 -2.3,0.4 -1.2,0 -2.1,-0.4 -2.8,-1.1 -0.7,-0.7 -1,-1.8 -1,-3.1 0,-0.9 0.2,-1.6 0.5,-2.3 0.3,-0.6 0.8,-1.1 1.3,-1.5 0.5,-0.4 1.3,-0.5 2.1,-0.5 0.8,0 1.6,0.2 2.4,0.6 l -0.6,1.4 c -0.3,-0.1 -0.6,-0.3 -0.9,-0.4 -0.3,-0.1 -0.6,-0.2 -0.9,-0.2 z" id="path12" inkscape:connector-curvature="0" style="fill:#ffffff"/>
		<path class="st0" d="m 170.1,106.2 -0.2,-0.8 h -0.1 c -0.2,0.3 -0.4,0.5 -0.8,0.7 -0.3,0.2 -0.7,0.2 -1.2,0.2 -0.7,0 -1.3,-0.2 -1.7,-0.6 -0.4,-0.4 -0.6,-1 -0.6,-1.7 v -4.1 h 1.7 v 3.7 c 0,0.5 0.1,0.8 0.2,1 0.1,0.2 0.4,0.3 0.8,0.3 0.5,0 0.8,-0.2 1,-0.5 0.2,-0.3 0.3,-0.9 0.3,-1.6 v -3 h 1.7 v 6.3 h -1.1 z" id="path14" inkscape:connector-curvature="0" style="fill:#ffffff"/>
		<path class="st0" d="m 176.7,106.4 c -0.7,0 -1.3,-0.3 -1.7,-0.8 h -0.1 c 0.1,0.5 0.1,0.8 0.1,0.9 v 2.6 h -1.7 V 100 h 1.4 l 0.2,0.8 h 0.1 c 0.4,-0.6 1,-0.9 1.8,-0.9 0.7,0 1.3,0.3 1.7,0.9 0.4,0.6 0.6,1.4 0.6,2.4 0,0.7 -0.1,1.3 -0.3,1.8 -0.2,0.5 -0.5,0.9 -0.8,1.1 -0.3,0.1 -0.8,0.3 -1.3,0.3 z m -0.5,-5.2 c -0.4,0 -0.7,0.1 -0.9,0.4 -0.2,0.3 -0.3,0.7 -0.3,1.3 v 0.2 c 0,0.7 0.1,1.2 0.3,1.5 0.2,0.3 0.5,0.4 1,0.4 0.8,0 1.2,-0.6 1.2,-1.9 0,-0.6 -0.1,-1.1 -0.3,-1.4 -0.2,-0.3 -0.6,-0.5 -1,-0.5 z" id="path16" inkscape:connector-curvature="0" style="fill:#ffffff"/>
		<path class="st0" d="m 188.6,104 c 0,0.7 -0.3,1.3 -0.8,1.8 -0.5,0.4 -1.3,0.6 -2.2,0.6 -0.9,0 -1.7,-0.2 -2.3,-0.5 v -1.6 c 0.6,0.2 1,0.4 1.4,0.5 0.4,0.1 0.7,0.2 1.1,0.2 0.4,0 0.7,-0.1 0.9,-0.2 0.2,-0.1 0.3,-0.4 0.3,-0.7 0,-0.2 0,-0.3 -0.1,-0.4 -0.1,-0.1 -0.2,-0.2 -0.4,-0.4 -0.2,-0.2 -0.5,-0.3 -1.1,-0.6 -0.5,-0.2 -0.9,-0.5 -1.1,-0.7 -0.3,-0.2 -0.5,-0.5 -0.6,-0.8 -0.2,-0.3 -0.2,-0.6 -0.2,-1 0,-0.7 0.2,-1.3 0.7,-1.7 0.5,-0.4 1.2,-0.6 2.1,-0.6 0.4,0 0.8,0.1 1.2,0.2 0.4,0.1 0.8,0.2 1.2,0.4 l -0.6,1.4 c -0.4,-0.2 -0.8,-0.3 -1.1,-0.4 -0.3,-0.1 -0.6,-0.1 -0.8,-0.1 -0.3,0 -0.6,0.1 -0.8,0.2 -0.2,0.2 -0.3,0.4 -0.3,0.6 0,0.2 0,0.3 0.1,0.4 0.1,0.1 0.2,0.2 0.3,0.3 0.2,0.1 0.5,0.3 1.1,0.6 0.8,0.4 1.3,0.7 1.6,1.1 0.3,0.4 0.4,0.8 0.4,1.4 z" id="path18" inkscape:connector-curvature="0" style="fill:#ffffff"/>
		<path class="st0" d="m 195.8,100.6 c 0,0.9 -0.3,1.6 -0.8,2 -0.6,0.5 -1.3,0.7 -2.4,0.7 h -0.8 v 2.9 h -1.7 V 98 h 2.6 c 1,0 1.8,0.2 2.3,0.6 0.5,0.5 0.8,1.1 0.8,2 z m -4,1.3 h 0.6 c 0.5,0 0.9,-0.1 1.2,-0.3 0.3,-0.2 0.4,-0.5 0.4,-0.9 0,-0.4 -0.1,-0.7 -0.3,-0.9 -0.2,-0.2 -0.6,-0.3 -1.1,-0.3 h -0.8 z" id="path20" inkscape:connector-curvature="0" style="fill:#ffffff"/>
		<path class="st0" d="M 197.3,106.2 V 98 h 1.7 v 6.8 h 3.3 v 1.4 z" id="path22" inkscape:connector-curvature="0" style="fill:#ffffff"/>
		<path class="st0" d="m 210,106.2 h -1.7 v -6.8 h -2.2 V 98 h 6.2 v 1.5 H 210 Z" id="path24" inkscape:connector-curvature="0" style="fill:#ffffff"/>
		<path class="st0" d="m 216.3,106.4 c -1,0 -1.8,-0.3 -2.4,-0.8 -0.6,-0.6 -0.9,-1.4 -0.9,-2.4 0,-1.1 0.3,-1.9 0.8,-2.5 0.5,-0.6 1.3,-0.9 2.2,-0.9 0.9,0 1.6,0.3 2.1,0.8 0.5,0.5 0.7,1.2 0.7,2.1 v 0.8 h -4.1 c 0,0.5 0.2,0.9 0.4,1.1 0.3,0.3 0.7,0.4 1.1,0.4 0.4,0 0.7,0 1.1,-0.1 0.3,-0.1 0.7,-0.2 1.1,-0.4 v 1.3 c -0.3,0.2 -0.6,0.3 -1,0.3 -0.4,0 -0.6,0.3 -1.1,0.3 z M 216,101 c -0.4,0 -0.7,0.1 -0.9,0.3 -0.2,0.2 -0.3,0.6 -0.4,1 h 2.4 c 0,-0.4 -0.1,-0.8 -0.3,-1 -0.2,-0.2 -0.4,-0.3 -0.8,-0.3 z" id="path26" inkscape:connector-curvature="0" style="fill:#ffffff"/>
		<path class="st0" d="m 224.2,106.2 -0.3,-0.9 v 0 c -0.3,0.4 -0.6,0.6 -0.9,0.8 -0.3,0.1 -0.7,0.2 -1.2,0.2 -0.6,0 -1.1,-0.2 -1.4,-0.5 -0.3,-0.3 -0.5,-0.8 -0.5,-1.5 0,-0.7 0.2,-1.2 0.7,-1.5 0.5,-0.3 1.2,-0.5 2.1,-0.5 h 1.1 V 102 c 0,-0.6 -0.3,-1 -1,-1 -0.5,0 -1.1,0.2 -1.8,0.5 l -0.6,-1.2 c 0.7,-0.4 1.5,-0.6 2.4,-0.6 0.8,0 1.5,0.2 1.9,0.6 0.5,0.4 0.7,0.9 0.7,1.7 v 4.2 z m -0.5,-2.9 H 223 c -0.5,0 -0.9,0.1 -1.1,0.3 -0.2,0.2 -0.4,0.4 -0.4,0.8 0,0.5 0.3,0.7 0.8,0.7 0.4,0 0.7,-0.1 1,-0.3 0.2,-0.2 0.4,-0.5 0.4,-0.9 z" id="path28" inkscape:connector-curvature="0" style="fill:#ffffff"/>
		<path class="st0" d="m 232.9,106.2 h -1.7 v -3.7 c 0,-0.5 -0.1,-0.8 -0.2,-1 -0.2,-0.2 -0.4,-0.3 -0.7,-0.3 -0.4,0 -0.8,0.2 -1,0.5 -0.2,0.3 -0.3,0.9 -0.3,1.6 v 3 h -1.7 V 100 h 1.3 l 0.2,0.8 h 0.1 c 0.2,-0.3 0.4,-0.5 0.7,-0.7 0.3,-0.2 0.7,-0.2 1.1,-0.2 0.9,0 1.6,0.3 1.9,0.9 h 0.2 c 0.2,-0.3 0.4,-0.5 0.7,-0.7 0.3,-0.2 0.7,-0.2 1.1,-0.2 0.7,0 1.3,0.2 1.6,0.5 0.3,0.3 0.5,1 0.5,1.8 v 4.1 H 235 v -3.7 c 0,-0.5 -0.1,-0.8 -0.2,-1 -0.2,-0.2 -0.4,-0.3 -0.7,-0.3 -0.4,0 -0.7,0.2 -0.9,0.5 -0.2,0.3 -0.3,0.8 -0.3,1.4 z" id="path30" inkscape:connector-curvature="0" style="fill:#ffffff"/>
		<path class="st0" d="m 241.4,102 c 0,-0.5 0.1,-0.9 0.4,-1.2 0.3,-0.3 0.6,-0.4 1.1,-0.4 0.5,0 0.8,0.1 1.1,0.4 0.3,0.3 0.4,0.7 0.4,1.2 0,0.5 -0.1,0.9 -0.4,1.2 -0.3,0.3 -0.6,0.4 -1.1,0.4 -0.5,0 -0.8,-0.1 -1.1,-0.4 -0.3,-0.3 -0.4,-0.7 -0.4,-1.2 z" id="path32" inkscape:connector-curvature="0" style="fill:#ffffff"/>
		<path class="st0" d="m 251.9,106.2 h -1.3 v -7.1 h -2.4 V 98 h 6.2 v 1.2 H 252 v 7 z" id="path34" inkscape:connector-curvature="0" style="fill:#ffffff"/>
		<path class="st0" d="m 262.1,98 v 5.3 c 0,0.6 -0.1,1.1 -0.4,1.6 -0.3,0.5 -0.6,0.8 -1.1,1.1 -0.5,0.2 -1.1,0.4 -1.8,0.4 -1,0 -1.8,-0.3 -2.4,-0.8 -0.6,-0.5 -0.9,-1.3 -0.9,-2.2 V 98 h 1.4 v 5.2 c 0,0.7 0.2,1.2 0.5,1.5 0.3,0.3 0.8,0.5 1.5,0.5 1.3,0 1.9,-0.7 1.9,-2 V 98 Z" id="path36" inkscape:connector-curvature="0" style="fill:#ffffff"/>
		<path class="st0" d="m 273.7,106.2 h -1.4 v -3.7 h -3.8 v 3.7 h -1.3 V 98 h 1.3 v 3.4 h 3.8 V 98 h 1.4 z" id="path38" inkscape:connector-curvature="0" style="fill:#ffffff"/>
		<path class="st0" d="m 279.6,106.2 -0.3,-0.9 v 0 c -0.3,0.4 -0.6,0.6 -0.9,0.8 -0.3,0.1 -0.7,0.2 -1.2,0.2 -0.6,0 -1.1,-0.2 -1.4,-0.5 -0.3,-0.3 -0.5,-0.8 -0.5,-1.4 0,-0.6 0.2,-1.1 0.7,-1.5 0.5,-0.3 1.2,-0.5 2.2,-0.5 h 1.1 v -0.3 c 0,-0.4 -0.1,-0.7 -0.3,-0.9 -0.2,-0.2 -0.5,-0.3 -0.9,-0.3 -0.3,0 -0.6,0 -0.9,0.1 -0.3,0.1 -0.6,0.2 -0.8,0.3 l -0.4,-0.9 c 0.3,-0.2 0.7,-0.3 1.1,-0.4 0.4,-0.1 0.8,-0.1 1.1,-0.1 0.8,0 1.4,0.2 1.8,0.5 0.4,0.3 0.6,0.9 0.6,1.6 v 4.2 z m -1.9,-0.9 c 0.5,0 0.9,-0.1 1.2,-0.4 0.3,-0.3 0.4,-0.6 0.4,-1.1 v -0.5 h -0.8 c -0.6,0 -1.1,0.1 -1.4,0.3 -0.3,0.2 -0.4,0.5 -0.4,0.9 0,0.3 0.1,0.5 0.2,0.6 0.2,0.2 0.4,0.2 0.8,0.2 z" id="path40" inkscape:connector-curvature="0" style="fill:#ffffff"/>
		<path class="st0" d="m 287.7,106.2 h -1.3 v -3.8 c 0,-0.5 -0.1,-0.8 -0.3,-1.1 -0.2,-0.2 -0.5,-0.4 -0.8,-0.4 -0.5,0 -0.9,0.2 -1.1,0.5 -0.2,0.3 -0.4,0.9 -0.4,1.7 v 3.1 h -1.3 V 100 h 1 l 0.2,0.8 h 0.1 c 0.2,-0.3 0.4,-0.5 0.8,-0.7 0.3,-0.2 0.7,-0.2 1.1,-0.2 1,0 1.6,0.3 1.9,1 h 0.1 c 0.2,-0.3 0.4,-0.5 0.8,-0.7 0.3,-0.2 0.7,-0.3 1.2,-0.3 0.7,0 1.3,0.2 1.6,0.6 0.3,0.4 0.5,0.9 0.5,1.7 v 4.1 h -1.3 v -3.8 c 0,-0.5 -0.1,-0.8 -0.3,-1.1 -0.2,-0.2 -0.5,-0.4 -0.8,-0.4 -0.5,0 -0.9,0.2 -1.1,0.5 -0.2,0.3 -0.4,0.8 -0.4,1.5 v 3.2 z" id="path42" inkscape:connector-curvature="0" style="fill:#ffffff"/>
		<path class="st0" d="m 296.7,99.9 c 0.8,0 1.4,0.3 1.8,0.8 0.4,0.6 0.7,1.4 0.7,2.4 0,1 -0.2,1.8 -0.7,2.4 -0.4,0.6 -1.1,0.9 -1.8,0.9 -0.8,0 -1.4,-0.3 -1.8,-0.9 h -0.1 l -0.2,0.7 h -1 v -8.8 h 1.3 v 2.1 c 0,0.2 0,0.4 0,0.7 0,0.3 0,0.5 0,0.6 h 0.1 c 0.2,-0.6 0.9,-0.9 1.7,-0.9 z m -0.4,1.1 c -0.5,0 -0.9,0.2 -1.2,0.5 -0.2,0.3 -0.4,0.8 -0.4,1.6 v 0.1 c 0,0.8 0.1,1.3 0.4,1.6 0.3,0.3 0.6,0.5 1.2,0.5 0.5,0 0.8,-0.2 1.1,-0.6 0.2,-0.4 0.4,-0.9 0.4,-1.6 0,-1.4 -0.5,-2.1 -1.5,-2.1 z" id="path44" inkscape:connector-curvature="0" style="fill:#ffffff"/>
		<path class="st0" d="m 305.1,106.2 -0.2,-0.8 h -0.1 c -0.2,0.3 -0.4,0.5 -0.8,0.7 -0.3,0.2 -0.7,0.2 -1.2,0.2 -0.8,0 -1.3,-0.2 -1.7,-0.6 -0.4,-0.4 -0.6,-0.9 -0.6,-1.7 v -4 h 1.3 v 3.8 c 0,0.5 0.1,0.8 0.3,1.1 0.2,0.2 0.5,0.4 0.9,0.4 0.6,0 1,-0.2 1.2,-0.5 0.3,-0.3 0.4,-0.9 0.4,-1.7 V 100 h 1.3 v 6.2 z" id="path46" inkscape:connector-curvature="0" style="fill:#ffffff"/>
		<path class="st0" d="m 311.2,99.9 c 0.3,0 0.5,0 0.7,0.1 l -0.1,1.2 c -0.2,0 -0.4,-0.1 -0.6,-0.1 -0.5,0 -1,0.2 -1.3,0.5 -0.3,0.3 -0.5,0.8 -0.5,1.3 v 3.3 H 308 V 100 h 1 l 0.2,1.1 h 0.1 c 0.2,-0.4 0.5,-0.7 0.8,-0.9 0.3,-0.2 0.7,-0.3 1.1,-0.3 z" id="path48" inkscape:connector-curvature="0" style="fill:#ffffff"/>
		<path class="st0" d="m 318.3,100 v 0.7 l -1.1,0.2 c 0.1,0.1 0.2,0.3 0.2,0.5 0.1,0.2 0.1,0.4 0.1,0.6 0,0.6 -0.2,1.1 -0.7,1.5 -0.4,0.4 -1.1,0.6 -1.8,0.6 -0.2,0 -0.4,0 -0.5,0 -0.3,0.2 -0.4,0.4 -0.4,0.6 0,0.1 0.1,0.3 0.2,0.3 0.1,0.1 0.4,0.1 0.7,0.1 h 1.1 c 0.7,0 1.2,0.1 1.6,0.4 0.4,0.3 0.5,0.7 0.5,1.3 0,0.7 -0.3,1.3 -0.9,1.6 -0.6,0.3 -1.4,0.6 -2.5,0.6 -0.8,0 -1.5,-0.2 -1.9,-0.5 -0.4,-0.3 -0.7,-0.7 -0.7,-1.3 0,-0.4 0.1,-0.7 0.4,-1 0.2,-0.3 0.6,-0.4 1,-0.5 -0.2,-0.1 -0.3,-0.2 -0.4,-0.4 -0.1,-0.2 -0.2,-0.3 -0.2,-0.5 0,-0.2 0.1,-0.4 0.2,-0.6 0.1,-0.2 0.3,-0.3 0.6,-0.5 -0.3,-0.1 -0.6,-0.4 -0.8,-0.7 -0.2,-0.3 -0.3,-0.7 -0.3,-1.1 0,-0.7 0.2,-1.2 0.6,-1.6 0.4,-0.4 1,-0.6 1.8,-0.6 0.2,0 0.4,0 0.6,0 0.2,0 0.3,0 0.4,0.1 h 2.2 z m -4.9,7.2 c 0,0.3 0.1,0.5 0.4,0.7 0.3,0.2 0.6,0.2 1.1,0.2 0.7,0 1.3,-0.1 1.6,-0.3 0.4,-0.2 0.5,-0.5 0.5,-0.8 0,-0.3 -0.1,-0.5 -0.3,-0.6 -0.2,-0.1 -0.6,-0.2 -1.1,-0.2 h -1 c -0.4,0 -0.7,0.1 -0.9,0.3 -0.2,0.2 -0.3,0.4 -0.3,0.7 z m 0.5,-5.2 c 0,0.4 0.1,0.7 0.3,0.9 0.2,0.2 0.5,0.3 0.9,0.3 0.8,0 1.2,-0.4 1.2,-1.2 0,-0.4 -0.1,-0.7 -0.3,-0.9 -0.2,-0.2 -0.5,-0.3 -0.9,-0.3 -0.4,0 -0.7,0.1 -0.9,0.3 -0.2,0.2 -0.3,0.5 -0.3,0.9 z" id="path50" inkscape:connector-curvature="0" style="fill:#ffffff"/>
		<path class="st0" d="m 320.8,105 c -0.2,0.7 -0.5,1.6 -1,2.7 h -1 c 0.3,-1 0.5,-2 0.6,-2.8 h 1.3 z" id="path52" inkscape:connector-curvature="0" style="fill:#ffffff"/>
		<path class="st0" d="m 329,101.8 h 3 v 4.1 c -0.5,0.2 -1,0.3 -1.4,0.3 -0.4,0 -1,0.1 -1.5,0.1 -1.2,0 -2.2,-0.4 -2.9,-1.1 -0.7,-0.7 -1,-1.8 -1,-3.1 0,-1.3 0.4,-2.4 1.1,-3.1 0.8,-0.8 1.8,-1.1 3.2,-1.1 0.9,0 1.7,0.2 2.4,0.5 l -0.5,1.1 c -0.7,-0.3 -1.3,-0.5 -2,-0.5 -0.9,0 -1.6,0.3 -2.1,0.8 -0.5,0.6 -0.8,1.3 -0.8,2.3 0,1 0.2,1.8 0.7,2.3 0.5,0.5 1.1,0.8 2,0.8 0.4,0 0.9,-0.1 1.4,-0.2 v -2.1 H 329 Z" id="path54" inkscape:connector-curvature="0" style="fill:#ffffff"/>
		<path class="st0" d="m 336.6,106.4 c -1,0 -1.7,-0.3 -2.3,-0.8 -0.5,-0.6 -0.8,-1.3 -0.8,-2.3 0,-1 0.3,-1.8 0.8,-2.4 0.5,-0.6 1.2,-0.9 2.1,-0.9 0.8,0 1.5,0.3 2,0.8 0.5,0.5 0.7,1.2 0.7,2.1 v 0.7 h -4.2 c 0,0.6 0.2,1.1 0.5,1.4 0.3,0.3 0.7,0.5 1.3,0.5 0.4,0 0.7,0 1,-0.1 0.3,-0.1 0.7,-0.2 1,-0.3 v 1.1 c -0.3,0.2 -0.7,0.3 -1,0.3 -0.3,-0.2 -0.7,-0.1 -1.1,-0.1 z m -0.2,-5.5 c -0.4,0 -0.8,0.1 -1,0.4 -0.3,0.3 -0.4,0.7 -0.5,1.2 h 2.8 c 0,-0.5 -0.1,-0.9 -0.4,-1.2 -0.2,-0.3 -0.5,-0.4 -0.9,-0.4 z" id="path56" inkscape:connector-curvature="0" style="fill:#ffffff"/>
		<path class="st0" d="m 343.7,99.9 c 0.3,0 0.5,0 0.7,0.1 l -0.1,1.2 c -0.2,0 -0.4,-0.1 -0.6,-0.1 -0.5,0 -1,0.2 -1.3,0.5 -0.3,0.3 -0.5,0.8 -0.5,1.3 v 3.3 h -1.3 V 100 h 1 l 0.2,1.1 h 0.1 c 0.2,-0.4 0.5,-0.7 0.8,-0.9 0.3,-0.2 0.6,-0.3 1,-0.3 z" id="path58" inkscape:connector-curvature="0" style="fill:#ffffff"/>
		<path class="st0" d="m 350.8,106.2 h -1.3 v -3.8 c 0,-0.5 -0.1,-0.8 -0.3,-1.1 -0.2,-0.2 -0.5,-0.4 -0.8,-0.4 -0.5,0 -0.9,0.2 -1.1,0.5 -0.2,0.3 -0.4,0.9 -0.4,1.7 v 3.1 h -1.3 V 100 h 1 l 0.2,0.8 h 0.1 c 0.2,-0.3 0.4,-0.5 0.8,-0.7 0.3,-0.2 0.7,-0.2 1.1,-0.2 1,0 1.6,0.3 1.9,1 h 0.1 c 0.2,-0.3 0.4,-0.5 0.8,-0.7 0.3,-0.2 0.7,-0.3 1.2,-0.3 0.7,0 1.3,0.2 1.6,0.6 0.3,0.4 0.5,0.9 0.5,1.7 v 4.1 h -1.3 v -3.8 c 0,-0.5 -0.1,-0.8 -0.3,-1.1 -0.2,-0.2 -0.5,-0.4 -0.8,-0.4 -0.5,0 -0.9,0.2 -1.1,0.5 -0.2,0.3 -0.4,0.8 -0.4,1.5 v 3.2 z" id="path60" inkscape:connector-curvature="0" style="fill:#ffffff"/>
		<path class="st0" d="m 360.5,106.2 -0.3,-0.9 v 0 c -0.3,0.4 -0.6,0.6 -0.9,0.8 -0.3,0.2 -0.7,0.2 -1.2,0.2 -0.6,0 -1.1,-0.2 -1.4,-0.5 -0.3,-0.3 -0.5,-0.8 -0.5,-1.4 0,-0.6 0.2,-1.1 0.7,-1.5 0.5,-0.3 1.2,-0.5 2.2,-0.5 h 1.1 v -0.3 c 0,-0.4 -0.1,-0.7 -0.3,-0.9 -0.2,-0.2 -0.5,-0.3 -0.9,-0.3 -0.3,0 -0.6,0 -0.9,0.1 -0.3,0.1 -0.6,0.2 -0.8,0.3 l -0.4,-0.9 c 0.3,-0.2 0.7,-0.3 1.1,-0.4 0.4,-0.1 0.8,-0.1 1.1,-0.1 0.8,0 1.4,0.2 1.8,0.5 0.4,0.3 0.6,0.9 0.6,1.6 v 4.2 z m -2,-0.9 c 0.5,0 0.9,-0.1 1.2,-0.4 0.3,-0.3 0.4,-0.6 0.4,-1.1 v -0.5 h -0.8 c -0.6,0 -1.1,0.1 -1.4,0.3 -0.3,0.2 -0.4,0.5 -0.4,0.9 0,0.3 0.1,0.5 0.2,0.6 0.2,0.2 0.5,0.2 0.8,0.2 z" id="path62" inkscape:connector-curvature="0" style="fill:#ffffff"/>
		<path class="st0" d="m 368.8,106.2 h -1.3 v -3.8 c 0,-0.5 -0.1,-0.8 -0.3,-1.1 -0.2,-0.2 -0.5,-0.4 -0.9,-0.4 -0.6,0 -1,0.2 -1.2,0.5 -0.2,0.3 -0.4,0.9 -0.4,1.7 v 3.1 h -1.3 V 100 h 1 l 0.2,0.8 h 0.1 c 0.2,-0.3 0.5,-0.5 0.8,-0.7 0.3,-0.2 0.7,-0.2 1.2,-0.2 1.5,0 2.2,0.8 2.2,2.3 v 4 z" id="path64" inkscape:connector-curvature="0" style="fill:#ffffff"/>
		<path class="st0" d="m 369.7,100 h 1.4 l 1.3,3.5 c 0.2,0.5 0.3,1 0.4,1.4 v 0 c 0,-0.2 0.1,-0.5 0.2,-0.8 0.1,-0.3 0.6,-1.7 1.4,-4.2 h 1.4 l -2.7,7.1 c -0.5,1.3 -1.3,1.9 -2.4,1.9 -0.3,0 -0.6,0 -0.9,-0.1 v -1 c 0.2,0 0.4,0.1 0.7,0.1 0.6,0 1.1,-0.4 1.3,-1.1 l 0.2,-0.6 z" id="path66" inkscape:connector-curvature="0" style="fill:#ffffff"/>
	</g><g id="g80">
		<path class="st1" d="M 180.2,91.8 H 167.4 V 64.5 H 142 V 91.8 H 129.2 V 32.3 H 142 v 20.4 h 25.5 V 32.3 h 12.8 v 59.5 z" id="path70" inkscape:connector-curvature="0" style="fill:#ffffff"/>
		<path class="st1" d="m 236.3,83.3 c 0,2.3 -0.8,4.3 -2.5,6 -1.7,1.7 -3.7,2.5 -6,2.5 h -34 c -2.3,0 -4.3,-0.8 -6,-2.5 -1.7,-1.7 -2.5,-3.7 -2.5,-6 v -51 h 12.8 V 80 h 25.5 V 32.3 h 12.8 v 51 z" id="path72" inkscape:connector-curvature="0" style="fill:#ffffff"/>
		<path class="st1" d="M 288.2,91.8 H 250 c -2.3,0 -4.3,-0.8 -6,-2.5 -1.7,-1.7 -2.5,-3.7 -2.5,-6 v -51 h 12.8 V 80 h 34 v 11.8 z" id="path74" inkscape:connector-curvature="0" style="fill:#ffffff"/>
		<path class="st1" d="M 349.4,91.8 H 333.2 L 319.6,73.1 306,91.8 H 293.2 V 32.3 H 306 v 37.3 l 27.2,-37.3 h 16.2 L 327.7,62 Z" id="path76" inkscape:connector-curvature="0" style="fill:#ffffff"/>
		<path class="st1" d="m 375.9,88 c 0,1 -0.4,1.9 -1.1,2.7 -0.7,0.7 -1.6,1.1 -2.7,1.1 h -19 v -5.3 h 17.1 v -6.9 h -13.3 c -1,0 -1.9,-0.4 -2.7,-1.1 -0.7,-0.7 -1.1,-1.6 -1.1,-2.7 V 69 c 0,-1 0.4,-1.9 1.1,-2.7 0.7,-0.7 1.6,-1.1 2.7,-1.1 h 19 v 5.3 h -17.1 v 3.8 h 13.3 c 1,0 1.9,0.4 2.7,1.1 0.7,0.7 1.1,1.6 1.1,2.7 z" id="path78" inkscape:connector-curvature="0" style="fill:#ffffff"/>
	</g></g>
	</g>
</svg>
