<?xml version="1.0" encoding="UTF-8" standalone="no"?>
<!-- Created with Inkscape (http://www.inkscape.org/) -->

<svg
   width="143.45242mm"
   height="109.90929mm"
   viewBox="0 0 143.45242 109.90929"
   version="1.1"
   id="svg1"
   xml:space="preserve"
   inkscape:version="1.4 (e7c3feb100, 2024-10-09)"
   sodipodi:docname="cross-canadian.svg"
   xmlns:inkscape="http://www.inkscape.org/namespaces/inkscape"
   xmlns:sodipodi="http://sodipodi.sourceforge.net/DTD/sodipodi-0.dtd"
   xmlns="http://www.w3.org/2000/svg"
   xmlns:svg="http://www.w3.org/2000/svg"><sodipodi:namedview
     id="namedview1"
     pagecolor="#ffffff"
     bordercolor="#000000"
     borderopacity="0.25"
     inkscape:showpageshadow="2"
     inkscape:pageopacity="0.0"
     inkscape:pagecheckerboard="0"
     inkscape:deskcolor="#d1d1d1"
     inkscape:document-units="mm"
     inkscape:zoom="1.7447895"
     inkscape:cx="203.17637"
     inkscape:cy="205.46891"
     inkscape:window-width="2560"
     inkscape:window-height="1410"
     inkscape:window-x="0"
     inkscape:window-y="0"
     inkscape:window-maximized="0"
     inkscape:current-layer="line" /><defs
     id="defs1"><marker
       style="overflow:visible"
       id="marker29"
       refX="0"
       refY="0"
       orient="auto-start-reverse"
       inkscape:stockid="Triangle arrow"
       markerWidth="1"
       markerHeight="1"
       viewBox="0 0 1 1"
       inkscape:isstock="true"
       inkscape:collect="always"
       preserveAspectRatio="xMidYMid"><path
         transform="scale(0.5)"
         style="fill:context-stroke;fill-rule:evenodd;stroke:context-stroke;stroke-width:1pt"
         d="M 5.77,0 -2.88,5 V -5 Z"
         id="path29" /></marker><marker
       style="overflow:visible"
       id="marker27"
       refX="0"
       refY="0"
       orient="auto-start-reverse"
       inkscape:stockid="Triangle arrow"
       markerWidth="1"
       markerHeight="1"
       viewBox="0 0 1 1"
       inkscape:isstock="true"
       inkscape:collect="always"
       preserveAspectRatio="xMidYMid"><path
         transform="scale(0.5)"
         style="fill:context-stroke;fill-rule:evenodd;stroke:context-stroke;stroke-width:1pt"
         d="M 5.77,0 -2.88,5 V -5 Z"
         id="path27" /></marker><marker
       style="overflow:visible"
       id="Triangle"
       refX="0"
       refY="0"
       orient="auto-start-reverse"
       inkscape:stockid="Triangle arrow"
       markerWidth="1"
       markerHeight="1"
       viewBox="0 0 1 1"
       inkscape:isstock="true"
       inkscape:collect="always"
       preserveAspectRatio="xMidYMid"><path
         transform="scale(0.5)"
         style="fill:context-stroke;fill-rule:evenodd;stroke:context-stroke;stroke-width:1pt"
         d="M 5.77,0 -2.88,5 V -5 Z"
         id="path135" /></marker><marker
       style="overflow:visible"
       id="Triangle-7"
       refX="0"
       refY="0"
       orient="auto-start-reverse"
       inkscape:stockid="Triangle arrow"
       markerWidth="1"
       markerHeight="1"
       viewBox="0 0 1 1"
       inkscape:isstock="true"
       inkscape:collect="always"
       preserveAspectRatio="xMidYMid"><path
         transform="scale(0.5)"
         style="fill:context-stroke;fill-rule:evenodd;stroke:context-stroke;stroke-width:1pt"
         d="M 5.77,0 -2.88,5 V -5 Z"
         id="path135-7" /></marker><marker
       style="overflow:visible"
       id="marker27-7"
       refX="0"
       refY="0"
       orient="auto-start-reverse"
       inkscape:stockid="Triangle arrow"
       markerWidth="1"
       markerHeight="1"
       viewBox="0 0 1 1"
       inkscape:isstock="true"
       inkscape:collect="always"
       preserveAspectRatio="xMidYMid"><path
         transform="scale(0.5)"
         style="fill:context-stroke;fill-rule:evenodd;stroke:context-stroke;stroke-width:1pt"
         d="M 5.77,0 -2.88,5 V -5 Z"
         id="path27-1" /></marker></defs><g
     inkscape:label="Layer 1"
     inkscape:groupmode="layer"
     id="layer1"
     transform="translate(-18.027513,-46.360531)"><text
       xml:space="preserve"
       style="font-size:3.52777px;line-height:normal;font-family:STIX;-inkscape-font-specification:STIX;text-decoration-color:#000000;fill:#000000;stroke-width:0.264999;-inkscape-stroke:none;stop-color:#000000"
       x="53.122887"
       y="63.353962"
       id="text1"><tspan
         sodipodi:role="line"
         id="tspan1"
         style="stroke-width:0.265"
         x="53.122887"
         y="63.353962" /></text><g
       id="g2"
       transform="matrix(0.26458333,0,0,0.26458333,48.683333,63.632292)"><g
         id="hair" /><g
         id="skin" /><g
         id="skin-shadow" /><g
         id="line"><rect
           style="fill:#f45d5e;fill-opacity:1;stroke:#000000;stroke-width:1.51181;stroke-dasharray:none;stroke-opacity:1;-inkscape-stroke:none"
           id="rect25"
           width="166.10223"
           height="229.7018"
           x="259.45975"
           y="-62.137482" /><path
           fill="#d22f27"
           d="m 340.51085,-10.280119 v -2.5109 c 0,-1.3807 1.1193,-2.5 2.5,-2.5 v 0 c 1.3807,0 2.5,1.1193 2.5,2.5 v 2.5"
           id="path1" /><path
           fill="#d0cfce"
           d="m 320.01085,14.708981 v 0 c -1.3807,0 -2.5,-1.1193 -2.5,-2.5 v -8 c 0,-1.3807 1.1193,-2.5 2.5,-2.5 v 0 c 1.3807,0 2.5,1.1193 2.5,2.5 v 8 c 0,1.3807 -1.1193,2.5 -2.5,2.5 z"
           id="path2" /><path
           fill="#d0cfce"
           d="m 365.01085,14.708981 v 0 c 1.3807,0 2.5,-1.1193 2.5,-2.5 v -8 c 0,-1.3807 -1.1193,-2.5 -2.5,-2.5 v 0 c -1.3807,0 -2.5,1.1193 -2.5,2.5 v 8 c 0,1.3807 1.1193,2.5 2.5,2.5 z"
           id="path3" /><path
           fill="#d0cfce"
           d="m 353.96135,29.719881 h -22.901 c -4.7022,0 -8.5495,-3.8473 -8.5495,-8.5495 v -22.901 c 0,-4.7022 3.8473,-8.5495 8.5495,-8.5495 h 22.901 c 4.7022,0 8.5495,3.8473 8.5495,8.5495 v 22.901 c 0,4.7021 -3.8473,8.5495 -8.5495,8.5495 z"
           id="path4" /><path
           fill="#9b9b9a"
           d="m 342.00855,29.719081 h 13.2865 c 3.9687,0 7.2158,-3.8473 7.2158,-8.5495 v -22.901 c 0,-4.7022 -3.2471,-8.5495 -7.2158,-8.5495 h -2.3526"
           id="path5" /><circle
           cx="351.34546"
           cy="2.6102817"
           fill="#ffffff"
           id="ellipse5"
           r="2.8338001" /><circle
           cx="333.84506"
           cy="2.6097801"
           fill="#ffffff"
           id="ellipse6"
           r="2.8338001" /><path
           fill="#ffffff"
           d="m 351.01085,21.108081 h -17 c -2.2,0 -4,-1.8 -4,-4 v 0 c 0,-2.2 1.8,-4 4,-4 h 17 c 2.2,0 4,1.8 4,4 v 0 c 0,2.2 -1.8,4 -4,4 z"
           id="path6" /><path
           fill="none"
           stroke="#000000"
           stroke-linecap="round"
           stroke-linejoin="round"
           stroke-miterlimit="2"
           stroke-width="2"
           d="m 340.51085,-10.381519 v -2.5109 c 0,-1.3807 1.1193,-2.5 2.5,-2.5 v 0 c 1.3807,0 2.5,1.1193 2.5,2.5 v 2.5"
           id="path7" /><path
           fill="none"
           stroke="#000000"
           stroke-linecap="round"
           stroke-linejoin="round"
           stroke-miterlimit="2"
           stroke-width="2"
           d="m 353.96135,29.607581 h -22.901 c -4.7022,0 -8.5495,-3.8473 -8.5495,-8.5495 v -22.901 c 0,-4.7022 3.8473,-8.5495 8.5495,-8.5495 h 22.901 c 4.7022,0 8.5495,3.8473 8.5495,8.5495 v 22.901 c 0,4.7022 -3.8473,8.5495 -8.5495,8.5495 z"
           id="path8" /><circle
           cx="351.34546"
           cy="2.6097801"
           fill="none"
           stroke="#000000"
           stroke-linecap="round"
           stroke-linejoin="round"
           stroke-miterlimit="2"
           stroke-width="2"
           id="ellipse8"
           r="2.8338001" /><circle
           cx="333.84506"
           cy="2.6092803"
           fill="none"
           stroke="#000000"
           stroke-linecap="round"
           stroke-linejoin="round"
           stroke-miterlimit="2"
           stroke-width="2"
           id="ellipse9"
           r="2.8338001" /><path
           fill="none"
           stroke="#000000"
           stroke-miterlimit="2"
           stroke-width="2"
           d="m 351.01085,21.107581 h -17 c -2.2,0 -4,-1.8 -4,-4 v 0 c 0,-2.2 1.8,-4 4,-4 h 17 c 2.2,0 4,1.8 4,4 v 0 c 0,2.2 -1.8,4 -4,4 z"
           id="path9" /><path
           fill="none"
           stroke="#000000"
           stroke-linecap="round"
           stroke-linejoin="round"
           stroke-miterlimit="2"
           stroke-width="2"
           d="m 320.01085,14.607581 v 0 c -1.3807,0 -2.5,-1.1193 -2.5,-2.5 v -8 c 0,-1.3807 1.1193,-2.5 2.5,-2.5 v 0 c 1.3807,0 2.5,1.1193 2.5,2.5 v 8 c 0,1.3807 -1.1193,2.5 -2.5,2.5 z"
           id="path10" /><path
           fill="none"
           stroke="#000000"
           stroke-linecap="round"
           stroke-linejoin="round"
           stroke-miterlimit="2"
           stroke-width="2"
           d="m 365.01085,14.607581 v 0 c 1.3807,0 2.5,-1.1193 2.5,-2.5 v -8 c 0,-1.3807 -1.1193,-2.5 -2.5,-2.5 v 0 c -1.3807,0 -2.5,1.1193 -2.5,2.5 v 8 c 0,1.3807 1.1193,2.5 2.5,2.5 z"
           id="path11" /><line
           x1="334.51086"
           x2="334.51086"
           y1="13.607581"
           y2="20.60758"
           fill="none"
           stroke="#000000"
           stroke-linecap="round"
           stroke-linejoin="round"
           stroke-miterlimit="2"
           stroke-width="2"
           id="line11" /><line
           x1="339.51086"
           x2="339.51086"
           y1="13.607581"
           y2="20.60758"
           fill="none"
           stroke="#000000"
           stroke-linecap="round"
           stroke-linejoin="round"
           stroke-miterlimit="2"
           stroke-width="2"
           id="line12" /><line
           x1="344.51086"
           x2="344.51086"
           y1="13.607581"
           y2="20.60758"
           fill="none"
           stroke="#000000"
           stroke-linecap="round"
           stroke-linejoin="round"
           stroke-miterlimit="2"
           stroke-width="2"
           id="line13" /><line
           x1="349.51086"
           x2="349.51086"
           y1="13.607581"
           y2="20.60758"
           fill="none"
           stroke="#000000"
           stroke-linecap="round"
           stroke-linejoin="round"
           stroke-miterlimit="2"
           stroke-width="2"
           id="line14" /><text
           xml:space="preserve"
           style="font-size:21.3333px;line-height:normal;font-family:'Hanken Grotesk';-inkscape-font-specification:'Hanken Grotesk';text-decoration-color:#000000;fill:#ffffff;stroke-width:1.00157;-inkscape-stroke:none;stop-color:#000000;fill-opacity:1"
           x="278.03094"
           y="-33.17112"
           id="text7"><tspan
             sodipodi:role="line"
             id="tspan7"
             x="278.03094"
             y="-33.17112"
             style="font-size:21.3333px;fill:#ffffff;fill-opacity:1">Target Device</tspan></text><text
           xml:space="preserve"
           style="font-size:13.3333px;line-height:normal;font-family:'FiraMono Nerd Font';-inkscape-font-specification:'FiraMono Nerd Font';text-decoration-color:#000000;fill:#ffffff;stroke-width:1.00157;-inkscape-stroke:none;stop-color:#000000;fill-opacity:1"
           x="306.6976"
           y="52.189819"
           id="text10"><tspan
             sodipodi:role="line"
             id="tspan10"
             x="306.6976"
             y="52.189819">tuhhnao22</tspan></text><text
           xml:space="preserve"
           style="font-size:13.3333px;line-height:normal;font-family:'Hanken Grotesk';-inkscape-font-specification:'Hanken Grotesk';text-decoration-color:#000000;fill:#ffffff;stroke-width:1.00157;-inkscape-stroke:none;stop-color:#000000;fill-opacity:1"
           x="299.42429"
           y="92.225815"
           id="text5-2-9-3"><tspan
             sodipodi:role="line"
             id="tspan5-1-2-2"
             x="299.42429"
             y="92.225815">Flashed Image</tspan></text><rect
           style="fill:none;stroke:#ffffff;stroke-width:1.51181;stroke-dasharray:none;stroke-opacity:1;-inkscape-stroke:none"
           id="rect10-9-9"
           width="103.88914"
           height="29.461102"
           x="290.56628"
           y="74.2686" /><text
           xml:space="preserve"
           style="font-size:13.3333px;line-height:normal;font-family:'Hanken Grotesk';-inkscape-font-specification:'Hanken Grotesk';text-decoration-color:#000000;fill:#ffffff;stroke-width:1.00157;-inkscape-stroke:none;stop-color:#000000;fill-opacity:1"
           x="288.73099"
           y="137.49883"
           id="text5-2-9-6-7-0"><tspan
             sodipodi:role="line"
             x="288.73099"
             y="137.49883"
             id="tspan11-8">Target Application</tspan></text><rect
           style="fill:none;stroke:#ffffff;stroke-width:1.51181;stroke-dasharray:none;stroke-opacity:1;-inkscape-stroke:none"
           id="rect10-9-5-6-7"
           width="114.85345"
           height="29.461105"
           x="285.08414"
           y="119.54161" /><rect
           style="fill:#637cf2;fill-opacity:1;stroke:#000000;stroke-width:1.51181;stroke-dasharray:none;stroke-opacity:1;-inkscape-stroke:none"
           id="rect23-1"
           width="325.09109"
           height="146.92145"
           x="-115.10861"
           y="202.44876" /><polygon
           fill="#9b9b9a"
           stroke="none"
           points="11.8119,68.0462 11.8119,40.9795 11.8119,35.9583 63.738,35.9583 63.738,40.9795 63.738,68.0462 "
           id="polygon1"
           transform="translate(-75.012368,238.89849)" /><rect
           x="12.387368"
           y="-274.85678"
           width="50"
           height="32.0667"
           transform="scale(-1)"
           fill="#9b9b9a"
           stroke="none"
           stroke-linecap="round"
           stroke-linejoin="round"
           stroke-miterlimit="10"
           stroke-width="2"
           id="rect1" /><polygon
           fill="#ffffff"
           stroke="none"
           points="62.625,36 12.625,13.779 12.625,3.8917 62.625,26.1127 "
           id="polygon2"
           transform="translate(-75.012368,238.89849)" /><polyline
           fill="none"
           stroke="#000000"
           stroke-linecap="round"
           stroke-linejoin="round"
           stroke-miterlimit="10"
           stroke-width="2"
           points="62.625,40.9795 62.625,68.0462 12.625,68.0462 12.625,40.9795"
           id="polyline2"
           transform="translate(-75.012368,238.89849)" /><rect
           x="12.387368"
           y="-274.85678"
           width="50"
           height="32.0667"
           transform="scale(-1)"
           fill="none"
           stroke="#000000"
           stroke-linecap="round"
           stroke-linejoin="round"
           stroke-miterlimit="10"
           stroke-width="2"
           id="rect2" /><line
           x1="-57.387367"
           x2="-17.387367"
           y1="280.42599"
           y2="280.42599"
           fill="none"
           stroke="#000000"
           stroke-linecap="round"
           stroke-linejoin="round"
           stroke-miterlimit="10"
           stroke-width="2"
           id="line2" /><line
           x1="-57.387367"
           x2="-17.387367"
           y1="285.99518"
           y2="285.99518"
           fill="none"
           stroke="#000000"
           stroke-linecap="round"
           stroke-linejoin="round"
           stroke-miterlimit="10"
           stroke-width="2"
           id="line3" /><line
           x1="-57.387367"
           x2="-17.387367"
           y1="291.56448"
           y2="291.56448"
           fill="none"
           stroke="#000000"
           stroke-linecap="round"
           stroke-linejoin="round"
           stroke-miterlimit="10"
           stroke-width="2"
           id="line4" /><rect
           x="-44.295269"
           y="295.08408"
           width="13.5062"
           height="8.1036997"
           fill="none"
           stroke="#000000"
           stroke-linecap="round"
           stroke-linejoin="round"
           stroke-miterlimit="10"
           stroke-width="2"
           id="rect4" /><rect
           x="12.387368"
           y="-274.85678"
           width="50"
           height="32.0667"
           transform="scale(-1)"
           fill="none"
           stroke="#000000"
           stroke-linecap="round"
           stroke-linejoin="round"
           stroke-miterlimit="10"
           stroke-width="2"
           id="rect5" /><text
           xml:space="preserve"
           style="font-size:21.3333px;line-height:normal;font-family:'Hanken Grotesk';-inkscape-font-specification:'Hanken Grotesk';text-decoration-color:#000000;fill:#ffffff;stroke-width:1.00157;-inkscape-stroke:none;stop-color:#000000;fill-opacity:1"
           x="-103.51743"
           y="230.30206"
           id="text6"><tspan
             sodipodi:role="line"
             id="tspan6"
             x="-103.51743"
             y="230.30206"
             style="font-size:21.3333px;fill:#ffffff;fill-opacity:1">SDKMACHINE</tspan></text><text
           xml:space="preserve"
           style="font-size:13.3333px;line-height:normal;font-family:'FiraMono Nerd Font';-inkscape-font-specification:'FiraMono Nerd Font';text-decoration-color:#000000;fill:#ffffff;stroke-width:1.00157;-inkscape-stroke:none;stop-color:#000000;fill-opacity:1"
           x="-97.19075"
           y="331.94073"
           id="text9"><tspan
             sodipodi:role="line"
             id="tspan9"
             x="-97.19075"
             y="331.94073">maximilians-t14</tspan></text><text
           xml:space="preserve"
           style="font-size:13.3333px;line-height:normal;font-family:'Hanken Grotesk';-inkscape-font-specification:'Hanken Grotesk';text-decoration-color:#000000;fill:#ffffff;stroke-width:1.00157;-inkscape-stroke:none;stop-color:#000000;fill-opacity:1"
           x="68.639496"
           y="287.8439"
           id="text5-2-9-6-7"><tspan
             sodipodi:role="line"
             x="68.639496"
             y="287.8439"
             id="tspan11">Target Application</tspan></text><rect
           style="fill:none;stroke:#ffffff;stroke-width:1.51181;stroke-dasharray:none;stroke-opacity:1;-inkscape-stroke:none"
           id="rect10-9-5-6"
           width="118.96506"
           height="29.46109"
           x="62.936848"
           y="269.88669" /><text
           xml:space="preserve"
           style="font-size:13.3333px;line-height:normal;font-family:'Hanken Grotesk';-inkscape-font-specification:'Hanken Grotesk';text-decoration-color:#000000;fill:#ffffff;stroke-width:1.00157;-inkscape-stroke:none;stop-color:#000000;fill-opacity:1"
           x="54.157532"
           y="254.37343"
           id="text5-2-9-6-5"><tspan
             sodipodi:role="line"
             id="tspan5-1-2-9-9"
             x="54.157532"
             y="254.37343">Installed SDK</tspan></text><rect
           style="fill:none;stroke:#ffffff;stroke-width:1.51181;stroke-dasharray:none;stroke-opacity:1;-inkscape-stroke:none"
           id="rect10-9-5-0"
           width="145.47942"
           height="73.964424"
           x="48.911591"
           y="237.88518" /><rect
           style="fill:#a66000;fill-opacity:1;stroke:#000000;stroke-width:1.51181;stroke-dasharray:none;stroke-opacity:1;-inkscape-stroke:none"
           id="rect23"
           width="288.65237"
           height="239.56966"
           x="-99.744392"
           y="-64.523193" /><path
           fill="#d0cfce"
           d="m 55.740187,28.586681 c 0,4.9583 7.8401,7.0417 7.8401,7.0417 h -31.6205 c 0,0 7.8401,-2.0833 7.8401,-7.0417 v -4.9336 h 15.7785 z"
           id="path1-9" /><path
           fill="#9b9b9a"
           d="m 74.750987,23.628381 h -53.9618 c -2.8026,0 -5.0746,-2.272 -5.0746,-5.0746 v -34.8924 c 0,-2.8026 2.272,-5.0746 5.0746,-5.0746 h 53.9618 c 2.8026,0 5.0746,2.272 5.0746,5.0746 v 34.8924 c 0,2.8026 -2.272,5.0746 -5.0746,5.0746 z"
           id="path2-1" /><path
           fill="#ffffff"
           d="m 79.103787,14.349781 -63.3337,-22.5208 v -9.4576 c 0,-1.8455 1.827,-3.135 3.5659,-2.5167 l 59.7678,21.2528 z"
           id="path3-1" /><path
           fill="#d0cfce"
           d="m 79.825587,15.191281 c 0,0 0.2122,4.1442 -1.5499,6.0805 -0.359,0.3945 -2.6448,1.8549 -3.5247,1.8535 l -53.9618,0.5 c -2.8026,0 -4.164,-1.852 -4.164,-2.4434 l -0.9106,-5.9906"
           id="path4-1" /><path
           fill="none"
           stroke="#000000"
           stroke-linecap="round"
           stroke-linejoin="round"
           stroke-width="2"
           d="m 74.750987,23.628381 h -53.9618 c -2.8026,0 -5.0746,-2.272 -5.0746,-5.0746 v -34.8924 c 0,-2.8026 2.272,-5.0746 5.0746,-5.0746 h 53.9618 c 2.8026,0 5.0746,2.272 5.0746,5.0746 v 34.8924 c 0,2.8026 -2.272,5.0746 -5.0746,5.0746 z"
           id="path5-2" /><path
           fill="none"
           stroke="#000000"
           stroke-linecap="round"
           stroke-linejoin="round"
           stroke-width="0.9187"
           d="m 74.750987,22.875281 -53.9618,0.75 c -2.8026,0 -4.164,-1.852 -4.164,-2.4434 l -0.9106,-5.9906"
           id="path6-1" /><path
           fill="none"
           stroke="#000000"
           stroke-linecap="round"
           stroke-linejoin="round"
           stroke-width="2"
           d="m 74.750987,23.128381 -53.9618,0.5 c -2.8026,0 -5.0746,-2.272 -5.0746,-5.0746 v -34.8924 c 0,-2.8026 2.272,-5.0746 5.0746,-5.0746 h 53.9618 c 2.8026,0 5.0746,2.272 5.0746,5.0746 l -0.5,34.8924 c 0,2.8026 -1.772,4.5746 -4.5746,4.5746 z"
           id="path7-2" /><line
           x1="18.770086"
           x2="76.770088"
           y1="16.120783"
           y2="16.120783"
           fill="none"
           stroke="#000000"
           stroke-linecap="round"
           stroke-linejoin="round"
           stroke-width="2"
           id="line7" /><path
           fill="none"
           stroke="#000000"
           stroke-linecap="round"
           stroke-linejoin="round"
           stroke-width="2"
           d="m 54.740187,28.586681 c 0,4.9583 8.8401,7.0417 8.8401,7.0417 h -31.6205 c 0,0 8.8401,-2.0833 8.8401,-7.0417"
           id="path8-5" /><text
           xml:space="preserve"
           style="font-size:21.3333px;line-height:normal;font-family:'Hanken Grotesk';-inkscape-font-specification:'Hanken Grotesk';text-decoration-color:#000000;fill:#ffffff;stroke-width:1.00157;-inkscape-stroke:none;stop-color:#000000;fill-opacity:1"
           x="-1.3178209"
           y="-33.17112"
           id="text5"><tspan
             sodipodi:role="line"
             id="tspan5"
             x="-1.3178209"
             y="-33.17112"
             style="font-size:21.3333px;fill:#ffffff;fill-opacity:1">Build Host</tspan></text><text
           xml:space="preserve"
           style="font-size:13.3333px;line-height:normal;font-family:'FiraMono Nerd Font';-inkscape-font-specification:'FiraMono Nerd Font';text-decoration-color:#000000;fill:#ffffff;stroke-width:1.00157;-inkscape-stroke:none;stop-color:#000000;fill-opacity:1"
           x="-52.52972"
           y="52.189819"
           id="text8"><tspan
             sodipodi:role="line"
             id="tspan8"
             x="-52.52972"
             y="52.189819">remote-compiler.hulks.dev</tspan></text><text
           xml:space="preserve"
           style="font-size:13.3333px;line-height:normal;font-family:'Hanken Grotesk';-inkscape-font-specification:'Hanken Grotesk';text-decoration-color:#000000;fill:#ffffff;stroke-width:1.00157;-inkscape-stroke:none;stop-color:#000000;fill-opacity:1"
           x="-56.061115"
           y="93.645813"
           id="text5-2"><tspan
             sodipodi:role="line"
             id="tspan5-1"
             x="-56.061115"
             y="93.645813">GCC-cross</tspan></text><rect
           style="fill:none;stroke:#ffffff;stroke-width:1.51181;stroke-dasharray:none;stroke-opacity:1;-inkscape-stroke:none"
           id="rect10"
           width="82.180954"
           height="29.461105"
           x="-64.605003"
           y="74.2686" /><text
           xml:space="preserve"
           style="font-size:13.3333px;line-height:normal;font-family:'Hanken Grotesk';-inkscape-font-specification:'Hanken Grotesk';text-decoration-color:#000000;fill:#ffffff;stroke-width:1.00157;-inkscape-stroke:none;stop-color:#000000;fill-opacity:1"
           x="-74.57399"
           y="144.65448"
           id="text5-2-6"><tspan
             sodipodi:role="line"
             id="tspan5-1-4"
             x="-74.57399"
             y="144.65448">GCC-crosssdk</tspan></text><rect
           style="fill:none;stroke:#ffffff;stroke-width:1.51181;stroke-dasharray:none;stroke-opacity:1;-inkscape-stroke:none"
           id="rect10-5"
           width="97.686798"
           height="29.461105"
           x="-80.110847"
           y="125.27728" /><text
           xml:space="preserve"
           style="font-size:13.3333px;line-height:normal;font-family:'Hanken Grotesk';-inkscape-font-specification:'Hanken Grotesk';text-decoration-color:#000000;fill:#ffffff;stroke-width:1.00157;-inkscape-stroke:none;stop-color:#000000;fill-opacity:1"
           x="55.79137"
           y="92.225815"
           id="text5-2-9"><tspan
             sodipodi:role="line"
             id="tspan5-1-2"
             x="55.79137"
             y="92.225815">Target Image (opn)</tspan></text><rect
           style="fill:none;stroke:#ffffff;stroke-width:1.51181;stroke-dasharray:none;stroke-opacity:1;-inkscape-stroke:none"
           id="rect10-9"
           width="118.61969"
           height="29.461105"
           x="50.654743"
           y="74.2686" /><text
           xml:space="preserve"
           style="font-size:13.3333px;line-height:normal;font-family:'Hanken Grotesk';-inkscape-font-specification:'Hanken Grotesk';text-decoration-color:#000000;fill:#ffffff;stroke-width:1.00157;-inkscape-stroke:none;stop-color:#000000;fill-opacity:1"
           x="58.059811"
           y="144.66115"
           id="text5-2-9-6"><tspan
             sodipodi:role="line"
             id="tspan5-1-2-9"
             x="58.059811"
             y="144.66115">Relocatable SDK</tspan></text><rect
           style="fill:none;stroke:#ffffff;stroke-width:1.51181;stroke-dasharray:none;stroke-opacity:1;-inkscape-stroke:none"
           id="rect10-9-5"
           width="114.74322"
           height="29.461105"
           x="50.654743"
           y="125.27728" /><path
           style="fill:none;stroke:#ffffff;stroke-width:1.51181;stroke-dasharray:none;stroke-opacity:1;-inkscape-stroke:none;marker-end:url(#Triangle)"
           d="m 17.769775,140.00783 h 25.78698"
           id="path15"
           sodipodi:nodetypes="cc" /><path
           style="fill:none;stroke:#ffffff;stroke-width:1.51181;stroke-dasharray:none;stroke-opacity:1;-inkscape-stroke:none;marker-end:url(#Triangle-7)"
           d="m 17.769775,88.999155 h 25.78698"
           id="path15-7"
           sodipodi:nodetypes="cc" /><path
           style="fill:#f4cfdf;fill-opacity:1;stroke:#ffffff;stroke-width:1.51181;stroke-dasharray:none;stroke-opacity:1;-inkscape-stroke:none;marker-end:url(#marker27)"
           d="M 169.35975,88.999158 H 282.98754"
           id="path26"
           sodipodi:nodetypes="cc" /><path
           style="fill:#f4cfdf;fill-opacity:1;stroke:#ffffff;stroke-width:1.51181;stroke-dasharray:none;stroke-opacity:1;-inkscape-stroke:none;marker-end:url(#marker27-7)"
           d="m 116.81553,154.94628 v 73.23751"
           id="path26-8"
           sodipodi:nodetypes="cc" /><path
           style="fill:none;fill-opacity:1;stroke:#ffffff;stroke-width:1.51181;stroke-dasharray:none;stroke-opacity:1;-inkscape-stroke:none;marker-end:url(#marker29)"
           d="M 182.20393,284.941 H 341.13882 V 156.02632"
           id="path28"
           sodipodi:nodetypes="ccc" /><text
           xml:space="preserve"
           style="font-size:13.3333px;line-height:normal;font-family:'FiraMono Nerd Font';-inkscape-font-specification:'FiraMono Nerd Font';text-decoration-color:#000000;fill:#ffffff;stroke-width:1.00157;-inkscape-stroke:none;stop-color:#000000;fill-opacity:1"
           x="192.4527"
           y="84.09269"
           id="text10-8"><tspan
             sodipodi:role="line"
             id="tspan10-3"
             x="192.4527"
             y="84.09269">gammaray</tspan></text><text
           xml:space="preserve"
           style="font-size:13.3333px;line-height:normal;font-family:'FiraMono Nerd Font';-inkscape-font-specification:'FiraMono Nerd Font';text-decoration-color:#000000;fill:#ffffff;stroke-width:1.00157;-inkscape-stroke:none;stop-color:#000000;fill-opacity:1"
           x="118.62585"
           y="195.13217"
           id="text10-8-7"><tspan
             sodipodi:role="line"
             id="tspan10-3-0"
             x="118.62585"
             y="195.13217">sdk install</tspan></text><text
           xml:space="preserve"
           style="font-size:13.3333px;line-height:normal;font-family:'FiraMono Nerd Font';-inkscape-font-specification:'FiraMono Nerd Font';text-decoration-color:#000000;fill:#ffffff;stroke-width:1.00157;-inkscape-stroke:none;stop-color:#000000;fill-opacity:1"
           x="257.89529"
           y="279.40588"
           id="text10-8-9"><tspan
             sodipodi:role="line"
             id="tspan10-3-6"
             x="257.89529"
             y="279.40588">upload</tspan></text></g></g></g></svg>
